<?xml version="1.0" encoding="utf-8"?>
<!-- Generator: Adobe Illustrator 24.1.0, SVG Export Plug-In . SVG Version: 6.00 Build 0)  -->
<svg version="1.1" id="Layer_1" xmlns="http://www.w3.org/2000/svg" xmlns:xlink="http://www.w3.org/1999/xlink" x="0px" y="0px"
	 viewBox="0 0 450 493.33" style="enable-background:new 0 0 450 493.33;" xml:space="preserve">
<style type="text/css">
	.st0{enable-background:new    ;}
	.st1{clip-path:url(#SVGID_2_);enable-background:new    ;}
	.st2{fill:#1D1D1B;}
	.st3{fill:#40403F;}
	.st4{clip-path:url(#SVGID_4_);enable-background:new    ;}
	.st5{fill:#4B4B4A;}
	.st6{fill:#454545;}
	.st7{fill:#893640;}
	.st8{fill:#692931;}
	.st9{fill:#E3A17D;}
	.st10{fill:#FAB18A;}
	.st11{fill:#BA4747;}
</style>
<g>
	<g>
		<g>
			<g class="st0">
				<g class="st0">
					<defs>
						<path id="SVGID_1_" class="st0" d="M251.05,189.8l31.03,18.84c3.34,2.03,5.42,6.35,5.43,12.48l-31.03-18.84
							C256.47,196.15,254.4,191.83,251.05,189.8z"/>
					</defs>
					<clipPath id="SVGID_2_">
						<use xlink:href="#SVGID_1_"  style="overflow:visible;"/>
					</clipPath>
					<g class="st1">
						<path class="st2" d="M287.52,221.12l-31.03-18.84c-0.02-6.14-2.09-10.45-5.43-12.48l31.03,18.84
							C285.43,210.67,287.5,214.99,287.52,221.12L287.52,221.12z"/>
					</g>
				</g>
				<g>
					<polygon class="st3" points="282.7,196.13 251.67,177.28 290.27,181.9 321.3,200.74 					"/>
				</g>
				<g class="st0">
					<defs>
						<path id="SVGID_3_" class="st0" d="M207.6,216.01l31.03,18.84c3.34,2.03,5.42,6.35,5.43,12.48l-31.03-18.84
							C213.02,222.36,210.94,218.04,207.6,216.01z"/>
					</defs>
					<clipPath id="SVGID_4_">
						<use xlink:href="#SVGID_3_"  style="overflow:visible;"/>
					</clipPath>
					<g class="st4">
						<path class="st2" d="M244.06,247.34l-31.03-18.84c-0.02-6.14-2.09-10.45-5.43-12.48l31.03,18.84
							C241.97,236.88,244.05,241.2,244.06,247.34L244.06,247.34z"/>
					</g>
				</g>
				<g>
					<polygon class="st5" points="211.47,239.1 180.44,220.25 251.67,177.28 282.7,196.13 					"/>
				</g>
				<g>
					<polygon class="st6" points="173.02,290.19 141.98,271.35 180.44,220.25 211.47,239.1 					"/>
				</g>
				<g>
					<path class="st7" d="M282.7,196.13l38.6,4.62l-33.78,20.38c-0.03-12.35-8.4-17.33-18.69-11.13
						c-10.29,6.21-18.6,21.25-18.57,33.6l-6.2,3.74c-0.03-12.35-8.4-17.33-18.69-11.13c-10.29,6.21-18.6,21.25-18.57,33.6
						l-33.79,20.38l38.45-51.1L282.7,196.13z"/>
				</g>
			</g>
		</g>
		<g>
			<g class="st0">
				<g>
					<polygon class="st8" points="285.79,189.92 252.55,169.73 289.4,174.14 322.65,194.33 					"/>
				</g>
				<g>
					<polygon class="st7" points="210.84,235.13 177.59,214.95 252.55,169.73 285.79,189.92 					"/>
				</g>
				<g>
					<polygon class="st8" points="174.24,283.76 141,263.58 177.59,214.95 210.84,235.13 					"/>
				</g>
				<g>
					<polygon class="st7" points="174.26,291 141.02,270.81 141,263.58 174.24,283.76 					"/>
				</g>
			</g>
		</g>
		<g>
			<g class="st0">
				<g>
					<polygon class="st9" points="287.63,180.76 285.42,179.42 320.4,183.61 322.62,184.95 					"/>
				</g>
				<g>
					<polygon class="st10" points="208.96,228.22 206.74,226.87 285.42,179.42 287.63,180.76 					"/>
				</g>
				<g>
					<polygon class="st9" points="174.22,274.38 172,273.04 206.74,226.87 208.96,228.22 					"/>
				</g>
				<g>
					<polygon class="st7" points="174.24,283.76 172.03,282.42 172,273.04 174.22,274.38 					"/>
				</g>
				<path class="st11" d="M322.65,194.33c0,0-0.03-9.37-0.03-9.37l-34.99-4.19l-78.68,47.46l-34.74,46.16l0.05,16.62l38.45-51.1
					l71.24-42.97l38.72,4.55L322.65,194.33z"/>
			</g>
		</g>
		<g>
			<g class="st0">
				<g>
					<polygon class="st9" points="256.6,161.91 254.38,160.57 289.37,164.76 291.59,166.1 					"/>
				</g>
				<g>
					<polygon class="st10" points="177.92,209.37 175.71,208.03 254.38,160.57 256.6,161.91 					"/>
				</g>
				<g>
					<polygon class="st9" points="143.19,255.53 140.97,254.19 175.71,208.03 177.92,209.37 					"/>
				</g>
				<g>
					<polygon class="st7" points="143.21,264.92 141,263.57 140.97,254.19 143.19,255.53 					"/>
				</g>
				<g>
					<polygon class="st11" points="256.6,161.91 291.59,166.1 291.61,175.48 254.76,171.08 179.8,216.29 143.21,264.92 
						143.19,255.53 177.92,209.37 					"/>
				</g>
			</g>
		</g>
	</g>
	<g>
		<g>
			<g>
				<g class="st0">
					<g>
						<path class="st11" d="M211.66,224.05l-0.04,2.32c0,0.21-0.14,0.43-0.41,0.59c-0.54,0.33-1.43,0.33-1.97,0
							c-0.27-0.17-0.41-0.38-0.41-0.6l0.04-2.32c0,0.22,0.14,0.44,0.41,0.6c0.55,0.33,1.43,0.33,1.97,0
							C211.53,224.48,211.66,224.27,211.66,224.05z"/>
					</g>
					<g>
						<path class="st10" d="M211.25,223.45c0.55,0.33,0.55,0.86,0.01,1.2c-0.54,0.33-1.43,0.33-1.97,0
							c-0.55-0.33-0.55-0.86-0.01-1.2C209.82,223.12,210.71,223.12,211.25,223.45z"/>
					</g>
				</g>
			</g>
			<g>
				<g class="st0">
					<g>
						<path class="st2" d="M211,216.55l-0.02,7.21c0,0.11-0.07,0.23-0.21,0.31c-0.29,0.17-0.75,0.17-1.04,0
							c-0.15-0.09-0.22-0.2-0.22-0.32l0.02-7.21c0,0.12,0.07,0.23,0.22,0.32c0.29,0.17,0.76,0.17,1.04,0
							C210.92,216.78,211,216.67,211,216.55z"/>
					</g>
					<g>
						<path class="st11" d="M210.78,216.23c0.29,0.17,0.29,0.46,0,0.63c-0.29,0.17-0.75,0.17-1.04,0c-0.29-0.17-0.29-0.46,0-0.63
							C210.02,216.06,210.49,216.06,210.78,216.23z"/>
					</g>
				</g>
			</g>
			<ellipse class="st10" cx="210.25" cy="215" rx="1.91" ry="2"/>
		</g>
		<g>
			<g>
				<g class="st0">
					<g>
						<path class="st11" d="M249.04,201.51l-0.04,2.32c0,0.21-0.14,0.43-0.41,0.59c-0.54,0.33-1.43,0.33-1.97,0
							c-0.27-0.17-0.41-0.38-0.41-0.6l0.04-2.32c0,0.22,0.14,0.44,0.41,0.6c0.55,0.33,1.43,0.33,1.97,0
							C248.91,201.94,249.04,201.73,249.04,201.51z"/>
					</g>
					<g>
						<path class="st10" d="M248.63,200.91c0.55,0.33,0.55,0.86,0.01,1.2c-0.54,0.33-1.43,0.33-1.97,0
							c-0.55-0.33-0.55-0.86-0.01-1.2C247.2,200.58,248.08,200.58,248.63,200.91z"/>
					</g>
				</g>
			</g>
			<g>
				<g class="st0">
					<g>
						<path class="st2" d="M248.38,194.01l-0.02,7.21c0,0.11-0.07,0.23-0.21,0.31c-0.29,0.17-0.75,0.17-1.04,0
							c-0.15-0.09-0.22-0.2-0.22-0.32l0.02-7.21c0,0.12,0.07,0.23,0.22,0.32c0.29,0.17,0.76,0.17,1.04,0
							C248.3,194.24,248.38,194.13,248.38,194.01z"/>
					</g>
					<g>
						<path class="st11" d="M248.16,193.69c0.29,0.17,0.29,0.46,0,0.63c-0.29,0.17-0.76,0.17-1.04,0c-0.29-0.17-0.29-0.46,0-0.63
							C247.4,193.52,247.87,193.52,248.16,193.69z"/>
					</g>
				</g>
			</g>
			<ellipse class="st10" cx="247.63" cy="192.46" rx="1.91" ry="2"/>
		</g>
		<g>
			<g>
				<g class="st0">
					<g>
						<path class="st11" d="M286.42,178.87l-0.04,2.32c0,0.21-0.14,0.43-0.41,0.59c-0.54,0.33-1.43,0.33-1.97,0
							c-0.27-0.17-0.41-0.38-0.41-0.6l0.04-2.32c0,0.22,0.14,0.44,0.41,0.6c0.55,0.33,1.43,0.33,1.97,0
							C286.29,179.3,286.42,179.08,286.42,178.87z"/>
					</g>
					<g>
						<path class="st10" d="M286.01,178.27c0.55,0.33,0.55,0.86,0.01,1.2c-0.54,0.33-1.43,0.33-1.97,0
							c-0.55-0.33-0.55-0.86-0.01-1.2C284.58,177.94,285.46,177.94,286.01,178.27z"/>
					</g>
				</g>
			</g>
			<g>
				<g class="st0">
					<g>
						<path class="st2" d="M285.76,171.37l-0.02,7.21c0,0.11-0.07,0.23-0.21,0.31c-0.29,0.17-0.75,0.17-1.04,0
							c-0.15-0.09-0.22-0.2-0.22-0.32l0.02-7.21c0,0.12,0.07,0.23,0.22,0.32c0.29,0.17,0.76,0.17,1.04,0
							C285.68,171.59,285.75,171.48,285.76,171.37z"/>
					</g>
					<g>
						<path class="st11" d="M285.54,171.05c0.29,0.17,0.29,0.46,0,0.63c-0.29,0.17-0.75,0.17-1.04,0c-0.29-0.17-0.29-0.46,0-0.63
							C284.78,170.87,285.25,170.87,285.54,171.05z"/>
					</g>
				</g>
			</g>
			<ellipse class="st10" cx="285.01" cy="169.81" rx="1.91" ry="2"/>
		</g>
	</g>
	<g>
		<g>
			<g>
				<g class="st0">
					<g>
						<path class="st11" d="M180.19,205.4l-0.04,2.32c0,0.21-0.14,0.43-0.41,0.59c-0.54,0.33-1.43,0.33-1.97,0
							c-0.27-0.17-0.41-0.38-0.41-0.6l0.04-2.32c0,0.22,0.14,0.44,0.41,0.6c0.55,0.33,1.43,0.33,1.97,0
							C180.05,205.83,180.19,205.61,180.19,205.4z"/>
					</g>
					<g>
						<path class="st10" d="M179.78,204.8c0.55,0.33,0.55,0.86,0.01,1.2c-0.54,0.33-1.43,0.33-1.97,0c-0.55-0.33-0.55-0.87-0.01-1.2
							C178.35,204.47,179.23,204.47,179.78,204.8z"/>
					</g>
				</g>
			</g>
			<g>
				<g class="st0">
					<g>
						<path class="st2" d="M179.52,197.9l-0.02,7.21c0,0.11-0.07,0.23-0.21,0.31c-0.29,0.17-0.75,0.17-1.04,0
							c-0.15-0.09-0.22-0.2-0.22-0.32l0.02-7.21c0,0.12,0.07,0.23,0.22,0.32c0.29,0.17,0.76,0.17,1.04,0
							C179.45,198.12,179.52,198.01,179.52,197.9z"/>
					</g>
					<g>
						<path class="st11" d="M179.3,197.58c0.29,0.17,0.29,0.46,0,0.63c-0.29,0.17-0.75,0.17-1.04,0c-0.29-0.17-0.29-0.46,0-0.63
							C178.55,197.4,179.02,197.4,179.3,197.58z"/>
					</g>
				</g>
			</g>
			<ellipse class="st10" cx="178.77" cy="196.34" rx="1.91" ry="2"/>
		</g>
		<g>
			<g>
				<g class="st0">
					<g>
						<path class="st11" d="M217.57,182.86l-0.04,2.32c0,0.21-0.14,0.43-0.41,0.59c-0.54,0.33-1.43,0.33-1.97,0
							c-0.27-0.17-0.41-0.38-0.41-0.6l0.04-2.32c0,0.22,0.14,0.44,0.41,0.6c0.55,0.33,1.43,0.33,1.97,0
							C217.43,183.29,217.57,183.07,217.57,182.86z"/>
					</g>
					<g>
						<path class="st10" d="M217.16,182.26c0.55,0.33,0.55,0.86,0.01,1.2c-0.54,0.33-1.43,0.33-1.97,0
							c-0.55-0.33-0.55-0.86-0.01-1.2C215.72,181.93,216.61,181.93,217.16,182.26z"/>
					</g>
				</g>
			</g>
			<g>
				<g class="st0">
					<g>
						<path class="st2" d="M216.9,175.36l-0.02,7.21c0,0.11-0.07,0.23-0.21,0.31c-0.29,0.17-0.76,0.17-1.04,0
							c-0.15-0.09-0.22-0.2-0.22-0.32l0.02-7.21c0,0.12,0.07,0.23,0.22,0.32c0.29,0.17,0.76,0.17,1.04,0
							C216.83,175.58,216.9,175.47,216.9,175.36z"/>
					</g>
					<g>
						<path class="st11" d="M216.68,175.04c0.29,0.17,0.29,0.46,0,0.63c-0.29,0.17-0.75,0.17-1.04,0c-0.29-0.17-0.29-0.46,0-0.63
							C215.93,174.86,216.39,174.86,216.68,175.04z"/>
					</g>
				</g>
			</g>
			<ellipse class="st10" cx="216.15" cy="173.8" rx="1.91" ry="2"/>
		</g>
		<g>
			<g>
				<g class="st0">
					<g>
						<path class="st11" d="M254.95,160.21l-0.04,2.32c0,0.21-0.14,0.43-0.41,0.59c-0.54,0.33-1.43,0.33-1.97,0
							c-0.27-0.17-0.41-0.38-0.41-0.6l0.04-2.32c0,0.22,0.14,0.44,0.41,0.6c0.55,0.33,1.43,0.33,1.97,0
							C254.81,160.64,254.95,160.43,254.95,160.21z"/>
					</g>
					<g>
						<path class="st10" d="M254.53,159.61c0.55,0.33,0.55,0.86,0.01,1.2c-0.54,0.33-1.43,0.33-1.97,0
							c-0.55-0.33-0.55-0.86-0.01-1.2C253.1,159.28,253.99,159.28,254.53,159.61z"/>
					</g>
				</g>
			</g>
			<g>
				<g class="st0">
					<g>
						<path class="st2" d="M254.28,152.71l-0.02,7.21c0,0.11-0.07,0.23-0.21,0.31c-0.29,0.17-0.75,0.17-1.04,0
							c-0.15-0.09-0.22-0.2-0.22-0.32l0.02-7.21c0,0.12,0.07,0.23,0.22,0.32c0.29,0.17,0.76,0.17,1.04,0
							C254.21,152.94,254.28,152.83,254.28,152.71z"/>
					</g>
					<g>
						<path class="st11" d="M254.06,152.39c0.29,0.17,0.29,0.46,0,0.63c-0.29,0.17-0.75,0.17-1.04,0c-0.29-0.17-0.29-0.46,0-0.63
							C253.31,152.22,253.77,152.22,254.06,152.39z"/>
					</g>
				</g>
			</g>
			<ellipse class="st10" cx="253.53" cy="151.16" rx="1.91" ry="2"/>
		</g>
	</g>
</g>
</svg>
